PathFileType	4	(X/Y/Z)	/Users/itak/Documents/Research/Walk-IL/dataset/trc/00330_00011.trc
DataRate	CameraRate	NumFrames	NumMarkers	Units	OrigDataRate	OrigDataStartFrame	OrigNumFrames
100.000000	100.000000	4	53	mm	100.000000	369	493
Frame#	Time	RPSI			LPSI			L3			STRN			T10			C7			CLAV			RBAK			LBAK			LSHO			LUPA			LAEL			LAOL			LWTS			LWPS			LFRA			LIFD			LHTS			RSHO			RUPA			RAEL			RAOL			RWPS			RFRA			RIFD			RHTS			RHPS			RBHD			LFHD			RFHD			LBHD			LHIP			RHIP			RASI			LASI			LKNE			LTHI			LANK			LTIP			LTOE			LMT1			LMT5			LHEE			RKNE			RTHI			RANK			RTIP			RTOE			RMT1			RMT5			RHEE			RWTS			LHPS			
		X1	Y1	Z1	X2	Y2	Z2	X3	Y3	Z3	X4	Y4	Z4	X5	Y5	Z5	X6	Y6	Z6	X7	Y7	Z7	X8	Y8	Z8	X9	Y9	Z9	X10	Y10	Z10	X11	Y11	Z11	X12	Y12	Z12	X13	Y13	Z13	X14	Y14	Z14	X15	Y15	Z15	X16	Y16	Z16	X17	Y17	Z17	X18	Y18	Z18	X19	Y19	Z19	X20	Y20	Z20	X21	Y21	Z21	X22	Y22	Z22	X23	Y23	Z23	X24	Y24	Z24	X25	Y25	Z25	X26	Y26	Z26	X27	Y27	Z27	X28	Y28	Z28	X29	Y29	Z29	X30	Y30	Z30	X31	Y31	Z31	X32	Y32	Z32	X33	Y33	Z33	X34	Y34	Z34	X35	Y35	Z35	X36	Y36	Z36	X37	Y37	Z37	X38	Y38	Z38	X39	Y39	Z39	X40	Y40	Z40	X41	Y41	Z41	X42	Y42	Z42	X43	Y43	Z43	X44	Y44	Z44	X45	Y45	Z45	X46	Y46	Z46	X47	Y47	Z47	X48	Y48	Z48	X49	Y49	Z49	X50	Y50	Z50	X51	Y51	Z51	X52	Y52	Z52	X53	Y53	Z53	

370	3.69	-1019.589965820312	991.2670288085938	248.2928161621094	-1031.097778320312	996.2899169921875	119.0985717773438	-1028.881958007812	1055.266235351562	194.3601226806641	-788.2581176757812	1204.805053710938	165.8404846191406	-1026.278930664062	1176.898559570312	188.2598724365234	-953.58544921875	1418.065307617188	168.9113006591797	-814.2164916992188	1332.090576171875	162.5637817382812	-1013.219360351562	1285.91357421875	245.9700927734375	-976.1878662109375	1382.118041992188	68.59652709960938	-893.5048217773438	1388.351196289062	7.097470283508301	-927.178466796875	1272.364868164062	-60.84131240844727	-920.4297485351562	1068.3671875	-77.07111358642578	-983.9685668945312	1056.3212890625	-22.29123115539551	-816.3046264648438	834.746826171875	-30.88839530944824	-853.384765625	819.049072265625	-87.11194610595703	-904.2158203125	963.6754760742188	-84.86511993408203	-786.281005859375	672.3076171875	-34.38972091674805	-792.8153076171875	760.49365234375	-48.47103500366211	-885.3983764648438	1397.312133789062	324.3149108886719	-894.7485961914062	1336.97314453125	394.4017639160156	-893.10107421875	1068.406616210938	432.788818359375	-961.5099487304688	1063.242553710938	367.8948669433594	-839.1098022460938	820.40380859375	443.79931640625	-871.1146240234375	1000.212341308594	434.8932495117188	-847.6637573242188	654.8978881835938	382.9693908691406	-817.1171264648438	721.8255615234375	378.3143615722656	-840.4769897460938	732.7608032226562	442.5593872070312	-886.0057373046875	1607.270629882812	241.9415283203125	-723.1207275390625	1611.66162109375	110.9404067993164	-726.0779418945312	1613.830078125	212.3569030761719	-909.3724365234375	1599.996337890625	99.11782073974609	-956.1263427734375	942.6898193359375	4.991328239440918	-937.64892578125	918.3713989257812	344.0120849609375	-835.7579345703125	943.9104614257812	306.0646667480469	-832.4653930664062	957.4192504882812	63.77933120727539	-820.8148193359375	483.6051940917969	20.23048973083496	-847.8519897460938	621.6551513671875	6.114292621612549	-995.1587524414062	82.78691864013672	10.47509670257568	-909.9564208984375	276.722412109375	2.38439679145813	-795.5552368164062	61.83806228637695	79.11002349853516	-867.1781005859375	51.36623382568359	113.9921112060547	-871.6063232421875	66.15428924560547	2.845096349716187	-1032.61083984375	84.26145172119141	76.71539306640625	-949.7655029296875	456.8829650878906	313.1964416503906	-889.9681396484375	711.9507446289062	342.0661010742188	-1041.42041015625	46.03210067749023	269.4985656738281	-955.5188598632812	338.4066772460938	297.5063171386719	-851.7845458984375	55.61769866943359	202.6178436279297	-908.79345703125	48.2085075378418	165.6676635742188	-935.8414306640625	37.3471565246582	280.8484191894531	-1097.109741210938	48.78175735473633	225.0485229492188	-832.4390258789062	826.6670532226562	368.4030456542969	-845.7138671875	749.5836791992188	-82.46099090576172	
371	3.7	-1021.358947753906	991.4627075195312	248.1509552001953	-1032.760375976562	996.42626953125	119.0149688720703	-1030.25927734375	1054.6044921875	193.9507141113281	-791.5198364257812	1205.865966796875	166.0446624755859	-1029.81982421875	1176.552734375	187.8215179443359	-957.7901000976562	1418.039428710938	168.4781646728516	-817.94970703125	1333.055786132812	162.76806640625	-1017.1708984375	1285.62548828125	245.0437927246094	-979.80126953125	1382.0576171875	68.05551910400391	-896.9036254882812	1388.881713867188	6.931962490081787	-929.430908203125	1272.742431640625	-61.25266265869141	-921.3299560546875	1068.763793945312	-77.32758331298828	-985.1985473632812	1056.453735351562	-23.00245475769043	-817.0350952148438	835.2184448242188	-30.50632095336914	-853.6224365234375	819.5118408203125	-87.00331115722656	-904.7461547851562	964.1135864257812	-85.04055023193359	-787.3973999023438	672.326904296875	-33.77353286743164	-793.4630126953125	760.7833251953125	-47.79485702514648	-890.4039916992188	1397.650634765625	324.2537536621094	-900.020263671875	1337.156860351562	394.2152099609375	-898.454345703125	1068.720336914062	432.8647155761719	-965.5175170898438	1063.265747070312	366.6047058105469	-844.8191528320312	821.1752319335938	446.4498291015625	-876.4068603515625	1000.54931640625	435.6029968261719	-852.137451171875	654.8806762695312	388.3292541503906	-821.658935546875	721.721923828125	382.946533203125	-846.026611328125	733.699951171875	446.6078491210938	-889.9735717773438	1607.949462890625	242.1172180175781	-726.9295654296875	1611.930786132812	111.2893218994141	-730.0001831054688	1614.080200195312	212.7047576904297	-913.1957397460938	1600.749633789062	99.26483154296875	-958.0211791992188	942.685791015625	4.857863903045654	-939.1644287109375	918.6712036132812	343.7378540039062	-837.497802734375	944.4888916015625	305.6986694335938	-833.90478515625	957.5892333984375	63.21484756469727	-827.3832397460938	482.5755920410156	19.50802040100098	-853.2874755859375	620.876220703125	5.528503894805908	-1004.604187011719	83.09213256835938	10.3229808807373	-917.8494262695312	276.4112854003906	2.091760158538818	-805.0608520507812	61.76052474975586	78.99838256835938	-876.7514038085938	51.35107421875	113.8746643066406	-881.1437377929688	66.19058990478516	2.718141794204712	-1042.100952148438	84.67188262939453	76.53060150146484	-950.5778198242188	457.211181640625	313.5696411132812	-891.5899047851562	712.8568725585938	342.6181030273438	-1041.446166992188	45.93528747558594	269.6875305175781	-956.0678100585938	338.6436767578125	297.6455688476562	-851.8123779296875	55.64474868774414	202.6913146972656	-908.806640625	48.33687973022461	165.8597106933594	-935.8346557617188	37.29097747802734	280.8727722167969	-1097.20654296875	48.78082275390625	225.1913146972656	-836.8682250976562	826.40673828125	371.0939636230469	-846.0755004882812	750.0377807617188	-82.32256317138672	
372	3.71	-1023.029907226562	991.639404296875	248.0244445800781	-1034.310668945312	996.5970458984375	118.9387664794922	-1031.434692382812	1053.935913085938	193.5226287841797	-794.659423828125	1206.936157226562	166.1924285888672	-1033.25439453125	1176.195190429688	187.3937530517578	-961.8846435546875	1417.9755859375	167.9403991699219	-821.57568359375	1334.015991210938	162.88330078125	-1020.999145507812	1285.319091796875	244.0420227050781	-983.307861328125	1381.942016601562	67.43323516845703	-900.2183837890625	1389.358276367188	6.669883251190186	-931.6002197265625	1273.056274414062	-61.7119255065918	-922.151123046875	1069.118774414062	-77.66196441650391	-986.3373413085938	1056.540893554688	-23.77742004394531	-817.7879028320312	835.5376586914062	-30.24860763549805	-853.8795776367188	819.9076538085938	-87.05930328369141	-905.2283325195312	964.5048217773438	-85.31620788574219	-788.4253540039062	672.5943603515625	-33.015869140625	-794.1331787109375	760.9664306640625	-47.31221008300781	-895.3008422851562	1398.02197265625	324.0927734375	-905.1961669921875	1337.398559570312	393.9447631835938	-903.783447265625	1069.096069335938	432.9214782714844	-969.3197021484375	1063.314575195312	365.151611328125	-850.3500366210938	822.039794921875	449.0182800292969	-881.7474365234375	1000.932312011719	436.3919677734375	-856.2137451171875	655.0153198242188	393.5596618652344	-825.8402099609375	721.799560546875	387.5357971191406	-851.335205078125	734.7473754882812	450.5267944335938	-893.9163818359375	1608.562866210938	242.2093811035156	-730.679443359375	1612.243896484375	111.6041107177734	-733.8952026367188	1614.331176757812	213.0144195556641	-916.961669921875	1601.4755859375	99.32112884521484	-959.8200073242188	942.6967163085938	4.729597091674805	-940.6865234375	918.9617919921875	343.5474243164062	-839.1508178710938	945.025146484375	305.3187866210938	-835.2509155273438	957.7556762695312	62.60974884033203	-834.1521606445312	481.5931091308594	18.58759307861328	-858.9298095703125	620.1627807617188	4.852893829345703	-1013.202087402344	82.98005676269531	10.23099136352539	-925.4113159179688	275.9352416992188	1.722424387931824	-813.580810546875	61.55403518676758	78.65208435058594	-885.26123046875	51.19132995605469	113.6372909545898	-889.8004760742188	65.94593048095703	2.472380399703979	-1050.641845703125	84.66713714599609	76.46006011962891	-951.248291015625	457.5304870605469	313.8567504882812	-893.181396484375	713.8073120117188	343.2666625976562	-1041.462646484375	45.85618209838867	269.8550720214844	-956.489990234375	338.8500061035156	297.6947021484375	-851.8506469726562	55.67757797241211	202.7741394042969	-908.8187255859375	48.47760009765625	166.0590972900391	-935.8307495117188	37.239013671875	280.8967590332031	-1097.287841796875	48.78536987304688	225.3234100341797	-840.9501953125	826.3070068359375	373.7666931152344	-846.5238037109375	750.41552734375	-82.35838317871094	
373	3.72	-1024.623657226562	991.776611328125	247.8934020996094	-1035.775390625	996.7696533203125	118.8471145629883	-1032.469970703125	1053.276489257812	193.0573577880859	-797.64697265625	1207.97119140625	166.2893829345703	-1036.535400390625	1175.82275390625	186.9335479736328	-965.8486328125	1417.87109375	167.3041687011719	-825.0794677734375	1334.923461914062	162.9076232910156	-1024.692626953125	1284.991577148438	242.9865875244141	-986.6900634765625	1381.76904296875	66.73400115966797	-903.4227294921875	1389.755126953125	6.319707870483398	-933.6851806640625	1273.288208007812	-62.21288299560547	-922.9251098632812	1069.412963867188	-78.06695556640625	-987.4168090820312	1056.563232421875	-24.60582160949707	-818.6058349609375	835.6812744140625	-30.09235572814941	-854.16748046875	820.229248046875	-87.27577972412109	-905.6865234375	964.8314208984375	-85.68376922607422	-789.3602294921875	673.0953979492188	-32.26938247680664	-794.8324584960938	761.052001953125	-47.03064346313477	-900.0484008789062	1398.402221679688	323.8277893066406	-910.2302856445312	1337.686889648438	393.5953063964844	-909.0345458984375	1069.517578125	432.9731750488281	-972.9205932617188	1063.3828125	363.625732421875	-855.6712646484375	822.9606323242188	451.4813537597656	-887.0802001953125	1001.353698730469	437.2455444335938	-859.90576171875	655.2914428710938	398.5239868164062	-829.684326171875	722.044677734375	391.9859008789062	-856.4024047851562	735.85595703125	454.2405700683594	-897.8431396484375	1609.080200195312	242.2113189697266	-734.381591796875	1612.599609375	111.8750610351562	-737.7713623046875	1614.585693359375	213.2761383056641	-920.6788940429688	1602.1396484375	99.27972412109375	-961.5148315429688	942.6842041015625	4.60774564743042	-942.2169799804688	919.2269287109375	343.4201965332031	-840.7518920898438	945.5284423828125	304.9374389648438	-836.5323486328125	957.892333984375	61.98140716552734	-841.0695190429688	480.6383056640625	17.5151195526123	-864.642578125	619.4986572265625	4.144670009613037	-1021.013366699219	82.48121643066406	10.18737316131592	-932.6904296875	275.3076477050781	1.285003900527954	-821.162841796875	61.15119552612305	77.95536804199219	-892.7322387695312	50.82550811767578	113.1893997192383	-897.6500854492188	65.41958618164062	2.030642032623291	-1058.262329101562	84.25889587402344	76.51321411132812	-951.7962646484375	457.8069152832031	314.0072021484375	-894.7192993164062	714.71142578125	343.9568481445312	-1041.468994140625	45.79867172241211	269.9872131347656	-956.8076782226562	339.0265197753906	297.6462707519531	-851.895263671875	55.71279525756836	202.8522796630859	-908.822509765625	48.61837768554688	166.2362365722656	-935.8287353515625	37.20150756835938	280.9131774902344	-1097.34716796875	48.79045486450195	225.4328155517578	-844.6871948242188	826.3663330078125	376.4111328125	-847.0375366210938	750.7129516601562	-82.56977081298828	
